<?xml version="1.0" encoding="iso-8859-1"?>
<!-- Generator: Adobe Illustrator 16.0.0, SVG Export Plug-In . SVG Version: 6.00 Build 0)  -->
<!DOCTYPE svg PUBLIC "-//W3C//DTD SVG 1.1//EN" "http://www.w3.org/Graphics/SVG/1.1/DTD/svg11.dtd">
<svg version="1.1" id="Capa_1" xmlns="http://www.w3.org/2000/svg" xmlns:xlink="http://www.w3.org/1999/xlink" x="0px" y="0px"
	 width="469.29px" height="469.29px" viewBox="0 0 469.29 469.29" style="enable-background:new 0 0 469.29 469.29;"
	 xml:space="preserve">
<g>
	<g>
		<path d="M125.606,276.149h248.136c6.903,0,12.5-5.597,12.5-12.5c0-6.902-5.597-12.5-12.5-12.5H125.606
			c-6.904,0-12.5,5.598-12.5,12.5C113.106,270.553,118.702,276.149,125.606,276.149z"/>
		<path d="M404.359,92.199l-29.89-83.893c-1.113-3.123-3.42-5.676-6.416-7.098c-2.995-1.422-6.433-1.596-9.556-0.482L53.258,109.484
			c-3.123,1.113-5.676,3.421-7.097,6.416c-1.422,2.995-1.595,6.432-0.482,9.555l29.208,81.976V456.79c0,6.903,5.597,12.5,12.5,12.5
			h324.449c6.902,0,12.5-5.597,12.5-12.5V205.152c0-6.903-5.598-12.5-12.5-12.5H159.672L396.78,108.17
			C403.283,105.852,406.676,98.702,404.359,92.199z M234.502,139.45l5.957-70.126l56.79-20.234l-5.955,70.125L234.502,139.45z
			 M151.839,168.902l5.956-70.125l56.79-20.234l-5.956,70.125L151.839,168.902z M131.922,107.996l-5.956,70.125l-31.042,11.061
			l-21.501-60.343L131.922,107.996z M399.336,444.29H99.887V217.652h299.449V444.29z M317.167,109.997l5.955-70.126l31.993-11.398
			l21.499,60.343L317.167,109.997z"/>
	</g>
</g>
<g>
</g>
<g>
</g>
<g>
</g>
<g>
</g>
<g>
</g>
<g>
</g>
<g>
</g>
<g>
</g>
<g>
</g>
<g>
</g>
<g>
</g>
<g>
</g>
<g>
</g>
<g>
</g>
<g>
</g>
</svg>
